<?xml version="1.0" encoding="UTF-8"?><svg xmlns="http://www.w3.org/2000/svg" viewBox="0 0 2958.2 2641.3"><defs><style>.d,.e{fill:#0b1f67;}.e{stroke:#0b1f67;}.e,.f{stroke-miterlimit:10;stroke-width:0px;}.g,.f{fill:#6f7fbf;}.f{stroke:#6f7fbf;}</style></defs><g id="a"/><g id="b"><g id="c"><g><rect class="d" x="1056.5" y="0" width="171.7" height="2641.2"/><rect class="d" x="1281" y="0" width="171.7" height="2641.2"/><rect class="d" x="1505.5" y="0" width="171.7" height="2641.2"/><rect class="d" x="1730" y="0" width="171.7" height="2641.2"/></g><g><path class="d" d="M2958.2,0h-132.1V333.4c0,15.2-4.3,30-12.5,42.8l-305.1,475.9c-8.2,12.8-12.5,27.6-12.5,42.8v851.6c0,15.2,4.3,30,12.5,42.8l305.1,475.9c8.2,12.8,12.5,27.6,12.5,42.8v333.3h132.1v-346.6c0-15.2-4.3-30-12.5-42.8l-305.1-475.9c-8.2-12.8-12.5-27.6-12.5-42.8V908c0-15.2,4.3-30,12.5-42.8l305.1-475.9c8.2-12.8,12.5-27.6,12.5-42.8V0Z"/><path class="d" d="M2760.1,0h-132.1V307c0,15.2-4.3,30-12.5,42.8l-305.1,475.9c-8.2,12.8-12.5,27.6-12.5,42.8v904.4c0,15.2,4.3,30,12.5,42.8l305.1,475.9c8.2,12.8,12.5,27.6,12.5,42.8v306.9h132.1v-320.1c0-15.2-4.3-30-12.5-42.8l-305.1-475.9c-8.2-12.8-12.5-27.6-12.5-42.8V881.6c0-15.2,4.3-30,12.5-42.8l305.1-475.9c8.2-12.8,12.5-27.6,12.5-42.8V0Z"/></g><g><path class="g" d="M2562,0h-132.1V280.5c0,15.2-4.3,30-12.5,42.8l-305.1,475.9c-8.2,12.8-12.5,27.6-12.5,42.8v957.2c0,15.2,4.3,30,12.5,42.8l305.1,475.9c8.2,12.8,12.5,27.6,12.5,42.8v280.5h132.1v-293.7c0-15.2-4.3-30-12.5-42.8l-305.1-475.9c-8.2-12.8-12.5-27.6-12.5-42.8V855.2c0-15.2,4.3-30,12.5-42.8l305.1-475.9c8.2-12.8,12.5-27.6,12.5-42.8V0Z"/><path class="g" d="M2363.9,0h-132.1V254.1c0,15.2-4.3,30-12.5,42.8l-305.1,475.9c-8.2,12.8-12.5,27.6-12.5,42.8v1010c0,15.2,4.3,30,12.5,42.8l305.1,475.9c8.2,12.8,12.5,27.6,12.5,42.8v254.1h132.1v-267.3c0-15.2-4.3-30-12.5-42.8l-305.1-475.9c-8.2-12.8-12.5-27.6-12.5-42.8V828.8c0-15.2,4.3-30,12.5-42.8l305.1-475.9c8.2-12.8,12.5-27.6,12.5-42.8V0Z"/></g><g><path class="f" d="M594.3,0h132.1V254.1c0,15.2,4.3,30,12.5,42.8l305.1,475.9c8.2,12.8,12.5,27.6,12.5,42.8v1010c0,15.2-4.3,30-12.5,42.8l-305.1,475.9c-8.2,12.8-12.5,27.6-12.5,42.8v254.1h-132.1v-267.3c0-15.2,4.3-30,12.5-42.8l305.1-475.9c8.2-12.8,12.5-27.6,12.5-42.8V828.8c0-15.2-4.3-30-12.5-42.8l-305.1-475.9c-8.2-12.8-12.5-27.6-12.5-42.8V0Z"/><path class="f" d="M396.2,0h132.1V280.5c0,15.2,4.3,30,12.5,42.8l305.1,475.9c8.2,12.8,12.5,27.6,12.5,42.8v957.2c0,15.2-4.3,30-12.5,42.8l-305.1,475.9c-8.2,12.8-12.5,27.6-12.5,42.8v280.5h-132.1v-293.7c0-15.2,4.3-30,12.5-42.8l305.1-475.9c8.2-12.8,12.5-27.6,12.5-42.8V855.2c0-15.2-4.3-30-12.5-42.8L408.7,336.5c-8.2-12.8-12.5-27.6-12.5-42.8V0Z"/></g><g><path class="e" d="M0,0H132.1V333.4c0,15.2,4.3,30,12.5,42.8l305.1,475.9c8.2,12.8,12.5,27.6,12.5,42.8v851.6c0,15.2-4.3,30-12.5,42.8l-305.1,475.9c-8.2,12.8-12.5,27.6-12.5,42.8v333.3H0v-346.6c0-15.2,4.3-30,12.5-42.8l305.1-475.9c8.2-12.8,12.5-27.6,12.5-42.8V908c0-15.2-4.3-30-12.5-42.8L12.6,389.3C4.4,376.6,0,361.7,0,346.6V0Z"/><path class="e" d="M198.1,0h132.1V307c0,15.2,4.3,30,12.5,42.8l305.1,475.9c8.2,12.8,12.5,27.6,12.5,42.8v904.4c0,15.2-4.3,30-12.5,42.8l-305.1,475.9c-8.2,12.8-12.5,27.6-12.5,42.8v306.9H198.1v-320.1c0-15.2,4.3-30,12.5-42.8l305.1-475.9c8.2-12.8,12.5-27.6,12.5-42.8V881.6c0-15.2-4.3-30-12.5-42.8L210.6,362.9c-8.2-12.8-12.5-27.6-12.5-42.8V0Z"/></g></g></g></svg>